/* XPM */
static const char *const vlc_xpm[] = {
"32 32 64 1",
"  c #6b4f5d",
". c #da54d4",
"X c #f66b68",
"o c #5b6cfc",
"O c #ac50ee",
"+ c #a59064",
"@ c #eb49ac",
"# c #fc946b",
"$ c #fcdf92",
"% c #673b8c",
"& c #d9a28a",
"* c #f4db72",
"= c #ed3ea4",
"- c #6e3932",
"; c #733e7d",
"> c #793ff7",
", c #45b1ff",
"' c #883457",
") c #bf3dd8",
"! c #84665b",
"~ c #c17a3a",
"{ c #272238",
"] c #231e31",
"^ c #201b2d",
"/ c #1e192a",
"( c #1b1834",
"_ c #2b2641",
": c #1d2037",
"< c #fcb856",
"[ c #ffb576",
"} c #fae677",
"| c #3d384a",
"1 c #35588b",
"2 c #4695fb",
"3 c #8568fe",
"4 c #9544f8",
"5 c #fb497e",
"6 c #f84a94",
"7 c #fc5b78",
"8 c #f556a8",
"9 c #fc6583",
"0 c #fd699a",
"a c #fc735d",
"b c #f97966",
"c c #fb8751",
"d c #fb915b",
"e c #feae59",
"f c #fac865",
"g c #25476b",
"h c #27417e",
"i c #2e5e7a",
"j c #2da7dc",
"k c #311d36",
"l c #342d3f",
"m c #372248",
"n c #342560",
"o c #36778d",
"p c #3cb5fe",
"q c #3dd7fe",
"r c #35e8ff",
"s c #462c39",
"t c #49414b",
"u c #43468d",
"v c #484dc8",
"///////////^^^^^^^^^////////////",
"///////^/^^^^^^^^^^^^///////////",
"//////^^^^^^^^^^^^^^^^^^////////",
"////^^^^^^^]]]]]]]]]^^^^^^^/////",
"////^^^]^]]]]]]]]]]]]]]]^^^^////",
"////^]]]]]]]]{]]{{]]]]]]]]^^^///",
"//^^^]]]]]]{{{{{{{{{]]]]]]]^^^//",
"/^^^]]]]]{{]{{{{{{{{{{{]]]]^^^^/",
"^^^]]{]]{{]|{({{{{{{{{{{{]]]]^^/",
"^^]]]{{{{( $& ]({{{{{{{{{]]]]]^^",
"^^]]{{{{{(![[$& (]{{{{{{{{{]]]^^",
"^]]{{{{{{( &b#[$+t(]{{{{{{{{]]^^",
"]]]{{{{{{( 09Xbdf*+|({{{{{{{{]]^",
"]]]{{{{{{( @67Xace*}+l]{{{{{{]]]",
"]]{{{{{{{:;.@65Xac<}$* ]{{{{{]]]",
"]]{{{{{{{{%O.@=57##<f}+({{{{{{]]",
"]{{{{{{{{{%44)=80#de<~s{{{{{{{]]",
"]{{{{{{{_{uo>O..89XX-]{{{{{{{{]]",
"]{{{{{{{_]1oo3O..@'k:{{{{{{{{]]]",
"]{{{{{{{_]1,2o3O%m:{{{{{{{{{{{]]",
"]]{{{{{{{^oqp2vn{{_{{{{{{{{{{{]]",
"]{{{{{{{{]irjh]{__{{{{{{{{{{{]]]",
"]]{{{{{{{{{g_]{__{{{{{{{{{{{{]]^",
"]]]{{{{{{{{]{{{{{{{{{{{{{{{{{]]^",
"]]]]{{{{{{{{{{{{{{{{{{{{{{{{]]]^",
"^]]]{{{{{{{{{{{{{{{{{{{{{{{]]]^^",
"^^]]]{{{{{{{{{{{{{{{{{{{{{]]]]^^",
"^^]]]]]{{{{{{{{{{{{{{{{{{]]]^^^^",
"^^^^]]]]{{{{{{{{{{{{{{{]]]]^^^//",
"/^^^^]]]]]{{{{{{{{{{]]]]]]^^^///",
"//^^^^]]]]]]]]]]{]]]]]]]^^^^////",
"//^^^^^]]]]]]]]]]]]]]]]^^^^^////"
};
