/* XPM */
static char * vlc_xmas[] = {
"16 16 41 1",
"  c #272237",
". c #231d31",
"X c #201b2d",
"o c #1e1a2a",
"O c #1c1935",
"+ c #554949",
"@ c #1f2337",
"# c #2e2741",
"$ c #28314c",
"% c #34293d",
"& c #342a68",
"* c #3c74c3",
"= c #349fbd",
"- c #3596d7",
"; c #462640",
"> c #46434a",
", c #5d43c4",
"' c #6d6562",
") c #6184ff",
"! c #70645f",
"~ c #9a41ad",
"{ c #95643d",
"] c #a23e8a",
"^ c #a142f6",
"/ c #aa5df4",
"( c #b94983",
"_ c #be966c",
": c #b1a162",
"< c #c78070",
"[ c #ed43c0",
"} c #e450c1",
"| c #f8457a",
"1 c #ff5a81",
"2 c #ff6f9a",
"3 c #f9775c",
"4 c #f1865c",
"5 c #ff8260",
"6 c #ffb661",
"7 c #ffb481",
"8 c #ffd669",
"9 c #ffe877",
"oooooXXXXXoooooo",
"oooXXXX..XXXXooo",
"ooX..  .....XXoo",
"oX.. OO    ...Xo",
"X.. O!'OO    ..X",
"X.  O<7_+O.   .X",
"..  @(156:>.  ..",
".    ~[|389+O  .",
".    ,^}24{%   .",
".    *)/];O    .",
".   .=-&       .",
".    $  #     ..",
"..   .        .X",
"X..          ..X",
"XX...      ..XXo",
"oXX.........XXoo"
};
